<svg width="1363" height="163" viewBox="0 0 1363 163" fill="none" xmlns="http://www.w3.org/2000/svg">
<path d="M0 15C0 6.71573 6.71573 0 15 0H37V163H15C6.71573 163 0 156.284 0 148V15Z" fill="#FECA0E"/>
<rect width="1097" height="163" transform="translate(37)" fill="#F0F0F0"/>
<path d="M101.906 53.9219L94.3945 51.2383V48.0859L104.602 52.375V54.6367L101.906 53.9219ZM94.3945 56.1719L101.918 53.4297L104.602 52.7852V55.0352L94.3945 59.3242V56.1719ZM119.543 54.918H115.195V52.1758H119.543C120.215 52.1758 120.762 52.0664 121.184 51.8477C121.605 51.6211 121.914 51.3086 122.109 50.9102C122.305 50.5117 122.402 50.0625 122.402 49.5625C122.402 49.0547 122.305 48.582 122.109 48.1445C121.914 47.707 121.605 47.3555 121.184 47.0898C120.762 46.8242 120.215 46.6914 119.543 46.6914H116.414V61H112.898V43.9375H119.543C120.879 43.9375 122.023 44.1797 122.977 44.6641C123.938 45.1406 124.672 45.8008 125.18 46.6445C125.688 47.4883 125.941 48.4531 125.941 49.5391C125.941 50.6406 125.688 51.5938 125.18 52.3984C124.672 53.2031 123.938 53.8242 122.977 54.2617C122.023 54.6992 120.879 54.918 119.543 54.918ZM134.859 58.1406V52.4922C134.859 52.0859 134.793 51.7383 134.66 51.4492C134.527 51.1523 134.32 50.9219 134.039 50.7578C133.766 50.5938 133.41 50.5117 132.973 50.5117C132.598 50.5117 132.273 50.5781 132 50.7109C131.727 50.8359 131.516 51.0195 131.367 51.2617C131.219 51.4961 131.145 51.7734 131.145 52.0938H127.77C127.77 51.5547 127.895 51.043 128.145 50.5586C128.395 50.0742 128.758 49.6484 129.234 49.2812C129.711 48.9062 130.277 48.6133 130.934 48.4023C131.598 48.1914 132.34 48.0859 133.16 48.0859C134.145 48.0859 135.02 48.25 135.785 48.5781C136.551 48.9062 137.152 49.3984 137.59 50.0547C138.035 50.7109 138.258 51.5312 138.258 52.5156V57.9414C138.258 58.6367 138.301 59.207 138.387 59.6523C138.473 60.0898 138.598 60.4727 138.762 60.8008V61H135.352C135.188 60.6562 135.062 60.2266 134.977 59.7109C134.898 59.1875 134.859 58.6641 134.859 58.1406ZM135.305 53.2773L135.328 55.1875H133.441C132.996 55.1875 132.609 55.2383 132.281 55.3398C131.953 55.4414 131.684 55.5859 131.473 55.7734C131.262 55.9531 131.105 56.1641 131.004 56.4062C130.91 56.6484 130.863 56.9141 130.863 57.2031C130.863 57.4922 130.93 57.7539 131.062 57.9883C131.195 58.2148 131.387 58.3945 131.637 58.5273C131.887 58.6523 132.18 58.7148 132.516 58.7148C133.023 58.7148 133.465 58.6133 133.84 58.4102C134.215 58.207 134.504 57.957 134.707 57.6602C134.918 57.3633 135.027 57.082 135.035 56.8164L135.926 58.2461C135.801 58.5664 135.629 58.8984 135.41 59.2422C135.199 59.5859 134.93 59.9102 134.602 60.2148C134.273 60.5117 133.879 60.7578 133.418 60.9531C132.957 61.1406 132.41 61.2344 131.777 61.2344C130.973 61.2344 130.242 61.0742 129.586 60.7539C128.938 60.4258 128.422 59.9766 128.039 59.4062C127.664 58.8281 127.477 58.1719 127.477 57.4375C127.477 56.7734 127.602 56.1836 127.852 55.668C128.102 55.1523 128.469 54.7188 128.953 54.3672C129.445 54.0078 130.059 53.7383 130.793 53.5586C131.527 53.3711 132.379 53.2773 133.348 53.2773H135.305ZM144.234 51.0859V61H140.859V48.3203H144.035L144.234 51.0859ZM148.055 48.2383L147.996 51.3672C147.832 51.3438 147.633 51.3242 147.398 51.3086C147.172 51.2852 146.965 51.2734 146.777 51.2734C146.301 51.2734 145.887 51.3359 145.535 51.4609C145.191 51.5781 144.902 51.7539 144.668 51.9883C144.441 52.2227 144.27 52.5078 144.152 52.8438C144.043 53.1797 143.98 53.5625 143.965 53.9922L143.285 53.7812C143.285 52.9609 143.367 52.207 143.531 51.5195C143.695 50.8242 143.934 50.2188 144.246 49.7031C144.566 49.1875 144.957 48.7891 145.418 48.5078C145.879 48.2266 146.406 48.0859 147 48.0859C147.188 48.0859 147.379 48.1016 147.574 48.1328C147.77 48.1562 147.93 48.1914 148.055 48.2383ZM153.023 42.9883V61H149.648V42.9883H153.023ZM161.016 48.3203L155.508 54.6016L152.555 57.5898L151.324 55.1523L153.668 52.1758L156.961 48.3203H161.016ZM157.512 61L153.762 55.1406L156.094 53.1016L161.402 61H157.512ZM172.57 55.3398H176.074C176.004 56.4883 175.688 57.5078 175.125 58.3984C174.57 59.2891 173.793 59.9844 172.793 60.4844C171.801 60.9844 170.605 61.2344 169.207 61.2344C168.113 61.2344 167.133 61.0469 166.266 60.6719C165.398 60.2891 164.656 59.7422 164.039 59.0312C163.43 58.3203 162.965 57.4609 162.645 56.4531C162.324 55.4453 162.164 54.3164 162.164 53.0664V51.8828C162.164 50.6328 162.328 49.5039 162.656 48.4961C162.992 47.4805 163.469 46.6172 164.086 45.9062C164.711 45.1953 165.457 44.6484 166.324 44.2656C167.191 43.8828 168.16 43.6914 169.23 43.6914C170.652 43.6914 171.852 43.9492 172.828 44.4648C173.812 44.9805 174.574 45.6914 175.113 46.5977C175.66 47.5039 175.988 48.5352 176.098 49.6914H172.582C172.543 49.0039 172.406 48.4219 172.172 47.9453C171.938 47.4609 171.582 47.0977 171.105 46.8555C170.637 46.6055 170.012 46.4805 169.23 46.4805C168.645 46.4805 168.133 46.5898 167.695 46.8086C167.258 47.0273 166.891 47.3594 166.594 47.8047C166.297 48.25 166.074 48.8125 165.926 49.4922C165.785 50.1641 165.715 50.9531 165.715 51.8594V53.0664C165.715 53.9492 165.781 54.7266 165.914 55.3984C166.047 56.0625 166.25 56.625 166.523 57.0859C166.805 57.5391 167.164 57.8828 167.602 58.1172C168.047 58.3438 168.582 58.457 169.207 58.457C169.941 58.457 170.547 58.3398 171.023 58.1055C171.5 57.8711 171.863 57.5234 172.113 57.0625C172.371 56.6016 172.523 56.0273 172.57 55.3398ZM185.016 58.1406V52.4922C185.016 52.0859 184.949 51.7383 184.816 51.4492C184.684 51.1523 184.477 50.9219 184.195 50.7578C183.922 50.5938 183.566 50.5117 183.129 50.5117C182.754 50.5117 182.43 50.5781 182.156 50.7109C181.883 50.8359 181.672 51.0195 181.523 51.2617C181.375 51.4961 181.301 51.7734 181.301 52.0938H177.926C177.926 51.5547 178.051 51.043 178.301 50.5586C178.551 50.0742 178.914 49.6484 179.391 49.2812C179.867 48.9062 180.434 48.6133 181.09 48.4023C181.754 48.1914 182.496 48.0859 183.316 48.0859C184.301 48.0859 185.176 48.25 185.941 48.5781C186.707 48.9062 187.309 49.3984 187.746 50.0547C188.191 50.7109 188.414 51.5312 188.414 52.5156V57.9414C188.414 58.6367 188.457 59.207 188.543 59.6523C188.629 60.0898 188.754 60.4727 188.918 60.8008V61H185.508C185.344 60.6562 185.219 60.2266 185.133 59.7109C185.055 59.1875 185.016 58.6641 185.016 58.1406ZM185.461 53.2773L185.484 55.1875H183.598C183.152 55.1875 182.766 55.2383 182.438 55.3398C182.109 55.4414 181.84 55.5859 181.629 55.7734C181.418 55.9531 181.262 56.1641 181.16 56.4062C181.066 56.6484 181.02 56.9141 181.02 57.2031C181.02 57.4922 181.086 57.7539 181.219 57.9883C181.352 58.2148 181.543 58.3945 181.793 58.5273C182.043 58.6523 182.336 58.7148 182.672 58.7148C183.18 58.7148 183.621 58.6133 183.996 58.4102C184.371 58.207 184.66 57.957 184.863 57.6602C185.074 57.3633 185.184 57.082 185.191 56.8164L186.082 58.2461C185.957 58.5664 185.785 58.8984 185.566 59.2422C185.355 59.5859 185.086 59.9102 184.758 60.2148C184.43 60.5117 184.035 60.7578 183.574 60.9531C183.113 61.1406 182.566 61.2344 181.934 61.2344C181.129 61.2344 180.398 61.0742 179.742 60.7539C179.094 60.4258 178.578 59.9766 178.195 59.4062C177.82 58.8281 177.633 58.1719 177.633 57.4375C177.633 56.7734 177.758 56.1836 178.008 55.668C178.258 55.1523 178.625 54.7188 179.109 54.3672C179.602 54.0078 180.215 53.7383 180.949 53.5586C181.684 53.3711 182.535 53.2773 183.504 53.2773H185.461ZM197.227 48.3203V50.7109H189.844V48.3203H197.227ZM191.672 45.1914H195.047V57.1797C195.047 57.5469 195.094 57.8281 195.188 58.0234C195.289 58.2188 195.438 58.3555 195.633 58.4336C195.828 58.5039 196.074 58.5391 196.371 58.5391C196.582 58.5391 196.77 58.5312 196.934 58.5156C197.105 58.4922 197.25 58.4688 197.367 58.4453L197.379 60.9297C197.09 61.0234 196.777 61.0977 196.441 61.1523C196.105 61.207 195.734 61.2344 195.328 61.2344C194.586 61.2344 193.938 61.1133 193.383 60.8711C192.836 60.6211 192.414 60.2227 192.117 59.6758C191.82 59.1289 191.672 58.4102 191.672 57.5195V45.1914ZM204.387 58.5977C204.801 58.5977 205.168 58.5195 205.488 58.3633C205.809 58.1992 206.059 57.9727 206.238 57.6836C206.426 57.3867 206.523 57.0391 206.531 56.6406H209.707C209.699 57.5312 209.461 58.3242 208.992 59.0195C208.523 59.707 207.895 60.25 207.105 60.6484C206.316 61.0391 205.434 61.2344 204.457 61.2344C203.473 61.2344 202.613 61.0703 201.879 60.7422C201.152 60.4141 200.547 59.9609 200.062 59.3828C199.578 58.7969 199.215 58.1172 198.973 57.3438C198.73 56.5625 198.609 55.7266 198.609 54.8359V54.4961C198.609 53.5977 198.73 52.7617 198.973 51.9883C199.215 51.207 199.578 50.5273 200.062 49.9492C200.547 49.3633 201.152 48.9062 201.879 48.5781C202.605 48.25 203.457 48.0859 204.434 48.0859C205.473 48.0859 206.383 48.2852 207.164 48.6836C207.953 49.082 208.57 49.6523 209.016 50.3945C209.469 51.1289 209.699 52 209.707 53.0078H206.531C206.523 52.5859 206.434 52.2031 206.262 51.8594C206.098 51.5156 205.855 51.2422 205.535 51.0391C205.223 50.8281 204.836 50.7227 204.375 50.7227C203.883 50.7227 203.48 50.8281 203.168 51.0391C202.855 51.2422 202.613 51.5234 202.441 51.8828C202.27 52.2344 202.148 52.6367 202.078 53.0898C202.016 53.5352 201.984 54.0039 201.984 54.4961V54.8359C201.984 55.3281 202.016 55.8008 202.078 56.2539C202.141 56.707 202.258 57.1094 202.43 57.4609C202.609 57.8125 202.855 58.0898 203.168 58.293C203.48 58.4961 203.887 58.5977 204.387 58.5977ZM214.957 43V61H211.582V43H214.957ZM214.477 54.2148H213.551C213.559 53.332 213.676 52.5195 213.902 51.7773C214.129 51.0273 214.453 50.3789 214.875 49.832C215.297 49.2773 215.801 48.8477 216.387 48.543C216.98 48.2383 217.637 48.0859 218.355 48.0859C218.98 48.0859 219.547 48.1758 220.055 48.3555C220.57 48.5273 221.012 48.8086 221.379 49.1992C221.754 49.582 222.043 50.0859 222.246 50.7109C222.449 51.3359 222.551 52.0938 222.551 52.9844V61H219.152V52.9609C219.152 52.3984 219.07 51.957 218.906 51.6367C218.75 51.3086 218.52 51.0781 218.215 50.9453C217.918 50.8047 217.551 50.7344 217.113 50.7344C216.629 50.7344 216.215 50.8242 215.871 51.0039C215.535 51.1836 215.266 51.4336 215.062 51.7539C214.859 52.0664 214.711 52.4336 214.617 52.8555C214.523 53.2773 214.477 53.7305 214.477 54.2148Z" fill="#888888"/>
<path d="M118.594 98.4219V104.75H101.086V98.4219H118.594ZM103.828 84.875V119H95.6016V84.875H103.828ZM124.125 84.875V119H115.922V84.875H124.125ZM127.992 106.578V106.086C127.992 104.227 128.258 102.516 128.789 100.953C129.32 99.375 130.102 98.0078 131.133 96.8516C132.164 95.6953 133.438 94.7969 134.953 94.1562C136.469 93.5 138.219 93.1719 140.203 93.1719C142.203 93.1719 143.961 93.5 145.477 94.1562C147.008 94.7969 148.289 95.6953 149.32 96.8516C150.352 98.0078 151.133 99.375 151.664 100.953C152.195 102.516 152.461 104.227 152.461 106.086V106.578C152.461 108.422 152.195 110.133 151.664 111.711C151.133 113.273 150.352 114.641 149.32 115.812C148.289 116.969 147.016 117.867 145.5 118.508C143.984 119.148 142.234 119.469 140.25 119.469C138.266 119.469 136.508 119.148 134.977 118.508C133.445 117.867 132.164 116.969 131.133 115.812C130.102 114.641 129.32 113.273 128.789 111.711C128.258 110.133 127.992 108.422 127.992 106.578ZM135.891 106.086V106.578C135.891 107.531 135.961 108.422 136.102 109.25C136.242 110.078 136.477 110.805 136.805 111.43C137.133 112.039 137.578 112.516 138.141 112.859C138.703 113.203 139.406 113.375 140.25 113.375C141.078 113.375 141.766 113.203 142.312 112.859C142.875 112.516 143.32 112.039 143.648 111.43C143.977 110.805 144.211 110.078 144.352 109.25C144.492 108.422 144.562 107.531 144.562 106.578V106.086C144.562 105.164 144.492 104.297 144.352 103.484C144.211 102.656 143.977 101.93 143.648 101.305C143.32 100.664 142.875 100.164 142.312 99.8047C141.75 99.4453 141.047 99.2656 140.203 99.2656C139.375 99.2656 138.68 99.4453 138.117 99.8047C137.57 100.164 137.133 100.664 136.805 101.305C136.477 101.93 136.242 102.656 136.102 103.484C135.961 104.297 135.891 105.164 135.891 106.086ZM163.688 111.453L168.375 93.6406H173.32L171.562 102.57L166.922 119H162.961L163.688 111.453ZM161.836 93.6406L164.742 111.312L165.07 119H160.266L154.266 93.6406H161.836ZM177.492 110.938L180.422 93.6406H187.992L182.039 119H177.234L177.492 110.938ZM173.883 93.6406L178.617 111.406L179.344 119H175.336L170.789 102.617L169.102 93.6406H173.883ZM218.297 84.875V119H210.07V84.875H218.297ZM228.562 84.875V91.2266H200.039V84.875H228.562ZM225.773 106.578V106.086C225.773 104.227 226.039 102.516 226.57 100.953C227.102 99.375 227.883 98.0078 228.914 96.8516C229.945 95.6953 231.219 94.7969 232.734 94.1562C234.25 93.5 236 93.1719 237.984 93.1719C239.984 93.1719 241.742 93.5 243.258 94.1562C244.789 94.7969 246.07 95.6953 247.102 96.8516C248.133 98.0078 248.914 99.375 249.445 100.953C249.977 102.516 250.242 104.227 250.242 106.086V106.578C250.242 108.422 249.977 110.133 249.445 111.711C248.914 113.273 248.133 114.641 247.102 115.812C246.07 116.969 244.797 117.867 243.281 118.508C241.766 119.148 240.016 119.469 238.031 119.469C236.047 119.469 234.289 119.148 232.758 118.508C231.227 117.867 229.945 116.969 228.914 115.812C227.883 114.641 227.102 113.273 226.57 111.711C226.039 110.133 225.773 108.422 225.773 106.578ZM233.672 106.086V106.578C233.672 107.531 233.742 108.422 233.883 109.25C234.023 110.078 234.258 110.805 234.586 111.43C234.914 112.039 235.359 112.516 235.922 112.859C236.484 113.203 237.188 113.375 238.031 113.375C238.859 113.375 239.547 113.203 240.094 112.859C240.656 112.516 241.102 112.039 241.43 111.43C241.758 110.805 241.992 110.078 242.133 109.25C242.273 108.422 242.344 107.531 242.344 106.578V106.086C242.344 105.164 242.273 104.297 242.133 103.484C241.992 102.656 241.758 101.93 241.43 101.305C241.102 100.664 240.656 100.164 240.094 99.8047C239.531 99.4453 238.828 99.2656 237.984 99.2656C237.156 99.2656 236.461 99.4453 235.898 99.8047C235.352 100.164 234.914 100.664 234.586 101.305C234.258 101.93 234.023 102.656 233.883 103.484C233.742 104.297 233.672 105.164 233.672 106.086ZM266.086 84.875H279.516C282.141 84.875 284.422 85.2656 286.359 86.0469C288.297 86.8281 289.789 87.9844 290.836 89.5156C291.898 91.0469 292.43 92.9375 292.43 95.1875C292.43 97.1406 292.125 98.7734 291.516 100.086C290.906 101.398 290.055 102.484 288.961 103.344C287.883 104.188 286.625 104.883 285.188 105.43L282.492 106.953H271.219L271.172 100.602H279.516C280.562 100.602 281.43 100.414 282.117 100.039C282.805 99.6641 283.32 99.1328 283.664 98.4453C284.023 97.7422 284.203 96.9062 284.203 95.9375C284.203 94.9531 284.023 94.1094 283.664 93.4062C283.305 92.7031 282.773 92.1641 282.07 91.7891C281.383 91.4141 280.531 91.2266 279.516 91.2266H274.312V119H266.086V84.875ZM284.766 119L277.219 103.906L285.938 103.859L293.578 118.648V119H284.766ZM311.836 112.836V93.6406H319.758V119H312.352L311.836 112.836ZM312.586 107.68L314.648 107.633C314.648 109.336 314.445 110.914 314.039 112.367C313.633 113.805 313.031 115.055 312.234 116.117C311.453 117.18 310.484 118.008 309.328 118.602C308.188 119.18 306.867 119.469 305.367 119.469C304.117 119.469 302.969 119.297 301.922 118.953C300.891 118.594 300 118.039 299.25 117.289C298.5 116.523 297.914 115.547 297.492 114.359C297.086 113.156 296.883 111.719 296.883 110.047V93.6406H304.781V110.094C304.781 110.656 304.852 111.141 304.992 111.547C305.133 111.953 305.336 112.297 305.602 112.578C305.867 112.844 306.195 113.047 306.586 113.188C306.992 113.312 307.453 113.375 307.969 113.375C309.156 113.375 310.086 113.125 310.758 112.625C311.43 112.125 311.898 111.445 312.164 110.586C312.445 109.727 312.586 108.758 312.586 107.68ZM331.875 99.0547V119H323.977V93.6406H331.383L331.875 99.0547ZM330.938 105.453L329.086 105.5C329.086 103.562 329.32 101.836 329.789 100.32C330.258 98.7891 330.922 97.4922 331.781 96.4297C332.641 95.3672 333.664 94.5625 334.852 94.0156C336.055 93.4531 337.391 93.1719 338.859 93.1719C340.031 93.1719 341.102 93.3438 342.07 93.6875C343.055 94.0312 343.898 94.5859 344.602 95.3516C345.32 96.1172 345.867 97.1328 346.242 98.3984C346.633 99.6484 346.828 101.195 346.828 103.039V119H338.883V103.016C338.883 102 338.742 101.227 338.461 100.695C338.18 100.148 337.773 99.7734 337.242 99.5703C336.711 99.3672 336.062 99.2656 335.297 99.2656C334.484 99.2656 333.797 99.4219 333.234 99.7344C332.672 100.047 332.219 100.484 331.875 101.047C331.547 101.594 331.305 102.242 331.148 102.992C331.008 103.742 330.938 104.562 330.938 105.453ZM363.773 108.195H357.047C357.047 106.82 357.141 105.609 357.328 104.562C357.531 103.5 357.875 102.547 358.359 101.703C358.844 100.859 359.5 100.078 360.328 99.3594C361.062 98.75 361.695 98.1641 362.227 97.6016C362.758 97.0391 363.164 96.4688 363.445 95.8906C363.727 95.3125 363.867 94.6953 363.867 94.0391C363.867 93.2266 363.75 92.5625 363.516 92.0469C363.297 91.5312 362.961 91.1484 362.508 90.8984C362.07 90.6328 361.516 90.5 360.844 90.5C360.297 90.5 359.781 90.6328 359.297 90.8984C358.828 91.1641 358.445 91.5781 358.148 92.1406C357.852 92.6875 357.688 93.4141 357.656 94.3203H349.711C349.758 91.9922 350.273 90.1016 351.258 88.6484C352.258 87.1797 353.586 86.1094 355.242 85.4375C356.914 84.75 358.781 84.4062 360.844 84.4062C363.125 84.4062 365.086 84.7578 366.727 85.4609C368.367 86.1641 369.625 87.2109 370.5 88.6016C371.375 89.9766 371.812 91.6719 371.812 93.6875C371.812 95.0312 371.555 96.2031 371.039 97.2031C370.539 98.1875 369.859 99.1094 369 99.9688C368.156 100.812 367.211 101.719 366.164 102.688C365.258 103.484 364.641 104.297 364.312 105.125C363.984 105.938 363.805 106.961 363.773 108.195ZM356.086 115.32C356.086 114.195 356.492 113.258 357.305 112.508C358.117 111.742 359.172 111.359 360.469 111.359C361.766 111.359 362.82 111.742 363.633 112.508C364.445 113.258 364.852 114.195 364.852 115.32C364.852 116.445 364.445 117.391 363.633 118.156C362.82 118.906 361.766 119.281 360.469 119.281C359.172 119.281 358.117 118.906 357.305 118.156C356.492 117.391 356.086 116.445 356.086 115.32Z" fill="black"/>
<path d="M1134 0H1348C1356.28 0 1363 6.71573 1363 15V148C1363 156.284 1356.28 163 1348 163H1134V0Z" fill="#FECA0E"/>
<path d="M1260.62 78.8078C1263.81 78.8078 1266.93 79.7552 1269.59 81.5302C1272.25 83.3052 1274.32 85.8281 1275.54 88.7798C1276.76 91.7315 1277.08 94.9795 1276.46 98.1131C1275.84 101.247 1274.3 104.125 1272.04 106.384C1269.78 108.643 1266.9 110.182 1263.77 110.805C1260.63 111.428 1257.39 111.108 1254.43 109.886C1251.48 108.663 1248.96 106.593 1247.18 103.936C1245.41 101.28 1244.46 98.1565 1244.46 94.9616C1244.46 90.6774 1246.16 86.5686 1249.19 83.5392C1252.22 80.5097 1256.33 78.8078 1260.62 78.8078V78.8078ZM1260.62 73.4232C1256.36 73.4232 1252.19 74.6864 1248.65 77.0531C1245.11 79.4198 1242.35 82.7836 1240.72 86.7192C1239.09 90.6549 1238.66 94.9855 1239.49 99.1636C1240.32 103.342 1242.37 107.179 1245.39 110.192C1248.4 113.204 1252.24 115.255 1256.41 116.086C1260.59 116.917 1264.92 116.491 1268.86 114.861C1272.79 113.23 1276.16 110.47 1278.52 106.928C1280.89 103.386 1282.15 99.2215 1282.15 94.9616C1282.15 89.2493 1279.88 83.7709 1275.85 79.7317C1271.81 75.6924 1266.33 73.4232 1260.62 73.4232Z" fill="white"/>
<path d="M1274.08 46.5H1220.23C1218.8 46.5 1217.43 47.0673 1216.42 48.0771C1215.41 49.0869 1214.85 50.4565 1214.85 51.8846V105.731C1214.85 107.159 1215.41 108.528 1216.42 109.538C1217.43 110.548 1218.8 111.115 1220.23 111.115H1231V105.731H1220.23V68.0384H1279.46V51.8846C1279.46 50.4565 1278.89 49.0869 1277.88 48.0771C1276.87 47.0673 1275.5 46.5 1274.08 46.5V46.5ZM1220.23 62.6538V51.8846H1274.08V62.6538H1220.23Z" fill="white"/>
<path d="M1255.23 86.8849V103.039L1268.69 94.9618L1255.23 86.8849Z" fill="white"/>
</svg>
